<svg width="16" height="14" viewBox="0 0 16 14" fill="none" xmlns="http://www.w3.org/2000/svg">
<path d="M14.5333 6.06359H15.0333V5.92502L14.962 5.80622L14.5333 6.06359ZM1.46667 6.06359L1.038 5.80622L0.966675 5.92502V6.06359H1.46667ZM3.45091 2.75872L3.02224 2.50134L3.45091 2.75872ZM12.5491 2.75871L12.9778 2.50134L12.5491 2.75871ZM4.26667 10.7333V10.2333H3.76667V10.7333H4.26667ZM11.7333 10.7333H12.2333V10.2333H11.7333V10.7333ZM14.0333 6.06359V11.6667H15.0333V6.06359H14.0333ZM1.89535 6.32096L3.87958 3.01609L3.02224 2.50134L1.038 5.80622L1.89535 6.32096ZM5.85147 1.9H10.1485V0.900002H5.85147V1.9ZM12.1204 3.01609L14.1047 6.32096L14.962 5.80622L12.9778 2.50134L12.1204 3.01609ZM3.33334 12.1H2.40001V13.1H3.33334V12.1ZM3.76667 10.7333V11.6667H4.76667V10.7333H3.76667ZM13.6 12.1H12.6667V13.1H13.6V12.1ZM12.2333 11.6667V10.7333H11.2333V11.6667H12.2333ZM11.7333 10.2333H4.26667V11.2333H11.7333V10.2333ZM1.96667 11.6667V6.06359H0.966675V11.6667H1.96667ZM12.6667 12.1C12.4274 12.1 12.2333 11.906 12.2333 11.6667H11.2333C11.2333 12.4583 11.8751 13.1 12.6667 13.1V12.1ZM3.33334 13.1C4.12495 13.1 4.76667 12.4583 4.76667 11.6667H3.76667C3.76667 11.906 3.57266 12.1 3.33334 12.1V13.1ZM2.40001 12.1C2.16068 12.1 1.96667 11.906 1.96667 11.6667H0.966675C0.966675 12.4583 1.6084 13.1 2.40001 13.1V12.1ZM10.1485 1.9C10.9562 1.9 11.7047 2.32364 12.1204 3.01609L12.9778 2.50134C12.3813 1.50783 11.3074 0.900002 10.1485 0.900002V1.9ZM3.87958 3.01609C4.29532 2.32364 5.0438 1.9 5.85147 1.9V0.900002C4.69264 0.900002 3.61874 1.50783 3.02224 2.50134L3.87958 3.01609ZM14.0333 11.6667C14.0333 11.906 13.8393 12.1 13.6 12.1V13.1C14.3916 13.1 15.0333 12.4583 15.0333 11.6667H14.0333ZM2.86667 9.36667H5.66667V8.36667H2.86667V9.36667ZM13.1333 8.36667H10.3333V9.36667H13.1333V8.36667ZM3.80001 6.56667H12.2V5.56667H3.80001V6.56667Z" fill="#FF0D29"/>
</svg>
