<svg width="13" height="13" viewBox="0 0 13 13" fill="none" xmlns="http://www.w3.org/2000/svg">
<path d="M6.5 0C3.97993 0 1.92969 2.05024 1.92969 4.57031C1.92969 5.42176 2.16554 6.2527 2.61191 6.97359L6.23985 12.82C6.30934 12.932 6.43178 13 6.56345 13C6.56447 13 6.56546 13 6.56647 13C6.69929 12.999 6.82198 12.9288 6.8902 12.8149L10.4257 6.91184C10.8474 6.20618 11.0703 5.3965 11.0703 4.57031C11.0703 2.05024 9.02007 0 6.5 0ZM9.77199 6.52077L6.55769 11.8875L3.25932 6.57226C2.88778 5.97223 2.68633 5.27998 2.68633 4.57031C2.68633 2.47025 4.39994 0.756641 6.5 0.756641C8.60006 0.756641 10.3111 2.47025 10.3111 4.57031C10.3111 5.25893 10.123 5.93348 9.77199 6.52077Z" fill="#9B9B9B"/>
<path d="M6.5 2.28516C5.23996 2.28516 4.21484 3.31028 4.21484 4.57031C4.21484 5.8223 5.22328 6.85547 6.5 6.85547C7.79246 6.85547 8.78516 5.80854 8.78516 4.57031C8.78516 3.31028 7.76004 2.28516 6.5 2.28516ZM6.5 6.09883C5.65558 6.09883 4.97148 5.41244 4.97148 4.57031C4.97148 3.73029 5.65998 3.0418 6.5 3.0418C7.34002 3.0418 8.02598 3.73029 8.02598 4.57031C8.02598 5.40015 7.3578 6.09883 6.5 6.09883Z" fill="#9B9B9B"/>
</svg>
