<svg width="24" height="24" viewBox="0 0 24 24" fill="none" xmlns="http://www.w3.org/2000/svg">
<path d="M7 11V10.5H6.5V11H7ZM11 11V10.5H10.5V11H11ZM11 15H10.5V15.5H11V15ZM18 8H18.5V7.79289L18.3536 7.64645L18 8ZM15 5L15.3536 4.64645L15.2071 4.5H15V5ZM7 11.5H8V10.5H7V11.5ZM7.5 15.5V13H6.5V15.5H7.5ZM7.5 13V11H6.5V13H7.5ZM8 12.5H7V13.5H8V12.5ZM8.5 12C8.5 12.2761 8.27614 12.5 8 12.5V13.5C8.82843 13.5 9.5 12.8284 9.5 12H8.5ZM8 11.5C8.27614 11.5 8.5 11.7239 8.5 12H9.5C9.5 11.1716 8.82843 10.5 8 10.5V11.5ZM10.5 11V15H11.5V11H10.5ZM11 15.5H12V14.5H11V15.5ZM13.5 14V12H12.5V14H13.5ZM12 10.5H11V11.5H12V10.5ZM13.5 12C13.5 11.1716 12.8284 10.5 12 10.5V11.5C12.2761 11.5 12.5 11.7239 12.5 12H13.5ZM12 15.5C12.8284 15.5 13.5 14.8284 13.5 14H12.5C12.5 14.2761 12.2761 14.5 12 14.5V15.5ZM14.5 10.5V15.5H15.5V10.5H14.5ZM15 11.5H17.5V10.5H15V11.5ZM15 13.5H16.5V12.5H15V13.5ZM6.5 9.5V6H5.5V9.5H6.5ZM17.5 8V9.5H18.5V8H17.5ZM7 5.5H15V4.5H7V5.5ZM14.6464 5.35355L17.6464 8.35355L18.3536 7.64645L15.3536 4.64645L14.6464 5.35355ZM6.5 6C6.5 5.72386 6.72386 5.5 7 5.5V4.5C6.17157 4.5 5.5 5.17157 5.5 6H6.5ZM5.5 16.5V18H6.5V16.5H5.5ZM7 19.5H17V18.5H7V19.5ZM18.5 18V16.5H17.5V18H18.5ZM17 19.5C17.8284 19.5 18.5 18.8284 18.5 18H17.5C17.5 18.2761 17.2761 18.5 17 18.5V19.5ZM5.5 18C5.5 18.8284 6.17157 19.5 7 19.5V18.5C6.72386 18.5 6.5 18.2761 6.5 18H5.5Z" fill="black"/>
</svg>
