<svg width="24" height="24" viewBox="0 0 24 24" fill="none" xmlns="http://www.w3.org/2000/svg">
<path d="M18 6L18.4596 6.19696C18.5401 6.00904 18.4981 5.79102 18.3536 5.64645C18.209 5.50188 17.991 5.45989 17.803 5.54043L18 6ZM5 11.5714L4.80304 11.1119C4.63046 11.1858 4.51386 11.3502 4.50115 11.5376C4.48843 11.7249 4.58175 11.9036 4.74275 12.0002L5 11.5714ZM12.4286 19L11.9998 19.2572C12.0964 19.4183 12.2751 19.5116 12.4624 19.4989C12.6498 19.4861 12.8142 19.3695 12.8881 19.197L12.4286 19ZM17.803 5.54043L4.80304 11.1119L5.19696 12.031L18.197 6.45957L17.803 5.54043ZM4.74275 12.0002L9.38561 14.7859L9.9001 13.9284L5.25725 11.1427L4.74275 12.0002ZM9.21411 14.6144L11.9998 19.2572L12.8573 18.7428L10.0716 14.0999L9.21411 14.6144ZM12.8881 19.197L18.4596 6.19696L17.5404 5.80304L11.969 18.803L12.8881 19.197ZM17.6464 5.64645L9.2893 14.0036L9.99641 14.7107L18.3536 6.35355L17.6464 5.64645Z" fill="black"/>
</svg>
